<svg xmlns="http://www.w3.org/2000/svg" width="32" height="28" viewBox="0 0 32 28">
  <defs><linearGradient id="h" x1="0" y1="0" x2="0" y2="1"><stop stop-color="#ff668b"/><stop offset="1" stop-color="#d91f58"/></linearGradient></defs>
  <path d="M16 26C12 22 2 15 2 8 2 1 11-1 16 5 21-1 30 1 30 8c0 7-10 14-14 18z" fill="#12090c" opacity=".55" transform="translate(1 1)"/>
  <path d="M16 25C12 21 2 14 2 7 2 0 11-2 16 4 21-2 30 0 30 7c0 7-10 14-14 18z" fill="url(#h)" stroke="#fff0d3" stroke-width="1.4"/>
  <path d="M7 5c2-3 5-3 7-1" fill="none" stroke="#fff7e8" stroke-width="2.2" stroke-linecap="round" opacity=".8"/>
</svg>
