<svg width="1000" height="1200" viewBox="0 0 1000 1200" fill="none" xmlns="http://www.w3.org/2000/svg">
<rect width="1000" height="1200" fill="white"/>
<path fill-rule="evenodd" clip-rule="evenodd" d="M643.658 385.291C642.285 386.635 608.001 393.443 567.473 400.419C378.703 432.917 308.269 450.907 308.269 466.616C308.269 475.26 326.322 490.824 336.351 490.824C343.122 490.824 342.006 493.722 332.163 501.693C321.996 509.923 319.809 515.933 323.149 526.46C327.27 539.446 329.789 540.118 361.398 536.741C380.01 534.75 424.93 527.69 461.218 521.05C497.506 514.41 552.836 504.812 584.176 499.726C615.515 494.639 652.459 487.548 666.267 483.979C691.566 477.435 703.262 464.707 690.972 457.107C687.265 454.822 695.987 448.699 710.676 443.271C741.811 431.772 748.344 415.673 725.413 406.958C716.842 403.701 708.257 396.94 706.338 391.943C703.909 385.597 694.294 382.856 674.507 382.856C658.912 382.856 645.032 383.953 643.658 385.291ZM593.174 581.632C576.679 584.607 544.29 589.952 521.197 593.515C451.926 604.186 348.923 622.936 322.112 629.756C303.111 634.584 293.215 641.818 281.627 659.327C261.468 689.792 262.078 700.222 284.276 704.661C294.173 706.641 302.272 711.643 302.272 715.775C302.272 737.621 317.78 737.725 423.243 716.545C570.068 687.058 657.623 670.712 668.516 670.742C681.603 670.784 704.138 648.495 704.138 635.515C704.138 629.57 697.774 621.814 689.994 618.27C681.309 614.311 674.423 604.676 672.149 593.31C668.767 576.377 666.517 574.86 645.806 575.508C633.354 575.898 609.668 578.651 593.174 581.632ZM666.523 620.41C664.532 622.402 659.356 622.618 655.031 620.885C650.245 618.971 651.667 617.55 658.654 617.262C664.976 617.004 668.515 618.419 666.523 620.41Z" fill="black"/>
</svg>
