<svg xmlns="http://www.w3.org/2000/svg" width="368" height="506" viewBox="0 0 368 506">
  <g stroke-linecap="round" stroke-linejoin="round">

    <!-- Kanji 3 三 -->
    <path d="M95 90 C145 86 223 86 273 90" fill="none" stroke="#162f56" stroke-width="24"/>
    <path d="M110 130 C150 128 218 128 258 130" fill="none" stroke="#162f56" stroke-width="22"/>
    <path d="M60 172 C135 164 233 164 308 172" fill="none" stroke="#162f56" stroke-width="28"/>
    <!-- Kanji 萬 (Wan) in Cinnabar Red -->
    <g fill="none" stroke="#c92424" stroke-linecap="round" stroke-linejoin="round">
      <!-- Top grass radical 艹 -->
      <path d="M68 230 C145 220 223 220 300 230" stroke-width="28"/>
      <path d="M130 205 L130 252" stroke-width="22"/>
      <path d="M238 205 L238 252" stroke-width="22"/>
      <!-- Middle 日 (Sun) box with horizontal divider -->
      <path d="M102 272 H266 V345 H102 Z" stroke-width="22"/>
      <path d="M102 308 H266" stroke-width="18"/>
      <!-- Horizontal crossbar under 日 -->
      <path d="M80 370 H288" stroke-width="20"/>
      <!-- Lower calligraphy legs: left sweep, center hook, right sweep -->
      <path d="M125 372 C112 418 85 455 58 474" stroke-width="26"/>
      <path d="M184 350 V472" stroke-width="24"/>
      <path d="M243 372 C256 418 280 455 310 474" stroke-width="26"/>
    </g>
  </g>
</svg>
