<svg xmlns="http://www.w3.org/2000/svg" width="368" height="506" viewBox="0 0 368 506">
  <g stroke-linecap="round" stroke-linejoin="round">

    <!-- Target Wheel 120,115 -->
    <g>
      <!-- Outer Navy Ring -->
      <circle cx="120.0" cy="115.0" r="38.0" fill="#162f56" stroke="#121b24" stroke-width="4.5"/>
      <!-- Concentric White Gap -->
      <circle cx="120.0" cy="115.0" r="29.6" fill="#ffffff"/>
      <!-- Inner Ring -->
      <circle cx="120.0" cy="115.0" r="16.7" fill="#162f56"/>
      <!-- Center Pip -->
      <circle cx="120.0" cy="115.0" r="9.5" fill="#c92424" stroke="#121b24" stroke-width="2.5"/>
      <!-- Pinpoint white sparkle -->
      <circle cx="120.0" cy="115.0" r="3.0" fill="#ffffff"/>
    </g>
    <!-- Target Wheel 248,115 -->
    <g>
      <!-- Outer Navy Ring -->
      <circle cx="248.0" cy="115.0" r="38.0" fill="#162f56" stroke="#121b24" stroke-width="4.5"/>
      <!-- Concentric White Gap -->
      <circle cx="248.0" cy="115.0" r="29.6" fill="#ffffff"/>
      <!-- Inner Ring -->
      <circle cx="248.0" cy="115.0" r="16.7" fill="#162f56"/>
      <!-- Center Pip -->
      <circle cx="248.0" cy="115.0" r="9.5" fill="#c92424" stroke="#121b24" stroke-width="2.5"/>
      <!-- Pinpoint white sparkle -->
      <circle cx="248.0" cy="115.0" r="3.0" fill="#ffffff"/>
    </g>
    <!-- Target Wheel 120,207 -->
    <g>
      <!-- Outer Navy Ring -->
      <circle cx="120.0" cy="207.0" r="38.0" fill="#162f56" stroke="#121b24" stroke-width="4.5"/>
      <!-- Concentric White Gap -->
      <circle cx="120.0" cy="207.0" r="29.6" fill="#ffffff"/>
      <!-- Inner Ring -->
      <circle cx="120.0" cy="207.0" r="16.7" fill="#162f56"/>
      <!-- Center Pip -->
      <circle cx="120.0" cy="207.0" r="9.5" fill="#c92424" stroke="#121b24" stroke-width="2.5"/>
      <!-- Pinpoint white sparkle -->
      <circle cx="120.0" cy="207.0" r="3.0" fill="#ffffff"/>
    </g>
    <!-- Target Wheel 248,207 -->
    <g>
      <!-- Outer Navy Ring -->
      <circle cx="248.0" cy="207.0" r="38.0" fill="#162f56" stroke="#121b24" stroke-width="4.5"/>
      <!-- Concentric White Gap -->
      <circle cx="248.0" cy="207.0" r="29.6" fill="#ffffff"/>
      <!-- Inner Ring -->
      <circle cx="248.0" cy="207.0" r="16.7" fill="#162f56"/>
      <!-- Center Pip -->
      <circle cx="248.0" cy="207.0" r="9.5" fill="#c92424" stroke="#121b24" stroke-width="2.5"/>
      <!-- Pinpoint white sparkle -->
      <circle cx="248.0" cy="207.0" r="3.0" fill="#ffffff"/>
    </g>
    <!-- Target Wheel 120,299 -->
    <g>
      <!-- Outer Navy Ring -->
      <circle cx="120.0" cy="299.0" r="38.0" fill="#162f56" stroke="#121b24" stroke-width="4.5"/>
      <!-- Concentric White Gap -->
      <circle cx="120.0" cy="299.0" r="29.6" fill="#ffffff"/>
      <!-- Inner Ring -->
      <circle cx="120.0" cy="299.0" r="16.7" fill="#162f56"/>
      <!-- Center Pip -->
      <circle cx="120.0" cy="299.0" r="9.5" fill="#c92424" stroke="#121b24" stroke-width="2.5"/>
      <!-- Pinpoint white sparkle -->
      <circle cx="120.0" cy="299.0" r="3.0" fill="#ffffff"/>
    </g>
    <!-- Target Wheel 248,299 -->
    <g>
      <!-- Outer Navy Ring -->
      <circle cx="248.0" cy="299.0" r="38.0" fill="#162f56" stroke="#121b24" stroke-width="4.5"/>
      <!-- Concentric White Gap -->
      <circle cx="248.0" cy="299.0" r="29.6" fill="#ffffff"/>
      <!-- Inner Ring -->
      <circle cx="248.0" cy="299.0" r="16.7" fill="#162f56"/>
      <!-- Center Pip -->
      <circle cx="248.0" cy="299.0" r="9.5" fill="#c92424" stroke="#121b24" stroke-width="2.5"/>
      <!-- Pinpoint white sparkle -->
      <circle cx="248.0" cy="299.0" r="3.0" fill="#ffffff"/>
    </g>
    <!-- Target Wheel 120,391 -->
    <g>
      <!-- Outer Navy Ring -->
      <circle cx="120.0" cy="391.0" r="38.0" fill="#162f56" stroke="#121b24" stroke-width="4.5"/>
      <!-- Concentric White Gap -->
      <circle cx="120.0" cy="391.0" r="29.6" fill="#ffffff"/>
      <!-- Inner Ring -->
      <circle cx="120.0" cy="391.0" r="16.7" fill="#162f56"/>
      <!-- Center Pip -->
      <circle cx="120.0" cy="391.0" r="9.5" fill="#c92424" stroke="#121b24" stroke-width="2.5"/>
      <!-- Pinpoint white sparkle -->
      <circle cx="120.0" cy="391.0" r="3.0" fill="#ffffff"/>
    </g>
    <!-- Target Wheel 248,391 -->
    <g>
      <!-- Outer Navy Ring -->
      <circle cx="248.0" cy="391.0" r="38.0" fill="#162f56" stroke="#121b24" stroke-width="4.5"/>
      <!-- Concentric White Gap -->
      <circle cx="248.0" cy="391.0" r="29.6" fill="#ffffff"/>
      <!-- Inner Ring -->
      <circle cx="248.0" cy="391.0" r="16.7" fill="#162f56"/>
      <!-- Center Pip -->
      <circle cx="248.0" cy="391.0" r="9.5" fill="#c92424" stroke="#121b24" stroke-width="2.5"/>
      <!-- Pinpoint white sparkle -->
      <circle cx="248.0" cy="391.0" r="3.0" fill="#ffffff"/>
    </g>
  </g>
</svg>
