<svg xmlns="http://www.w3.org/2000/svg" width="368" height="506" viewBox="0 0 368 506">
  <g stroke-linecap="round" stroke-linejoin="round">

    <!-- Mascot Red Dragon Crest -->
    <g fill="none" stroke="#c92424" stroke-linecap="round" stroke-linejoin="round">
      <!-- Dragon Horns & Head -->
      <path d="M212 120 C242 75 288 68 300 52 C288 84 264 110 246 132" stroke-width="14"/>
      <path d="M188 132 C182 92 154 75 142 65 C158 92 172 115 178 138" stroke-width="12"/>
      <!-- Coiled Body -->
      <path d="M230 142 C290 164 326 235 302 305 C274 385 184 408 120 362 C64 305 76 215 142 168 C202 132 272 160 282 218 C292 276 248 325 188 325 C148 325 124 296 142 260" stroke-width="32"/>
      <!-- Spines / Crest Details -->
      <path d="M292 205 L322 198 M308 250 L338 258 M295 305 L322 322 M255 365 L274 395 M198 395 L204 430 M142 382 L135 418" stroke-width="10"/>
    </g>
  </g>
</svg>
